<svg xmlns="http://www.w3.org/2000/svg" width="275.363" height="277.976" viewBox="0 0 275.363 277.976">
  <g id="Group_4072" data-name="Group 4072" transform="translate(9199.873 2384.458)">
    <path id="Path_15290" data-name="Path 15290" d="M742.961,543c-3.06-37.088-4.589-55.632-11.71-67.63-20.387-34.353-79.66-42.523-117.095-39.39-50.117,4.193-107.451,32.521-132.688,87.215-22.922,49.678-12.353,105.909,22.186,142.693,63.314,67.431,193.919,55.392,225.822,11.145,12.733-17.659,13.65-45.863,15-87.294A388.3,388.3,0,0,0,742.961,543Z" transform="translate(-8455.22 -1671.119) rotate(180)" fill="#dcdcdc" opacity="0.1"/>
    <g id="Group_4071" data-name="Group 4071" transform="translate(-93.503 56.259)">
      <g id="Group_233" data-name="Group 233" transform="translate(-9085.872 -2336.324)">
        <path id="Path_107" data-name="Path 107" d="M409.682,229.332l20.345,104.6,2.663,13.693-135.816-.67c-6.1-.03-11.5-5.442-13.458-13.483l-24.083-98.75c-1.489-6.1,1.778-12.453,6.4-12.448l137.462.144C406.234,222.418,408.887,225.25,409.682,229.332Z" transform="translate(-258.968 -222.27)" fill="#f59900"/>
      </g>
      <g id="Group_102" data-name="Group 102" transform="translate(-9011.844 -2431.976) rotate(30)">
        <path id="Path_114" data-name="Path 114" d="M358.05,202.105l-87.459,91.561L153.054,181.4l64.938-67.984,44.917-2.185Z" transform="translate(-153.054 -111.228)" fill="#ffc727"/>
        <path id="Path_115" data-name="Path 115" d="M358.05,202.105l-87.459,91.561L153.054,181.4l64.938-67.984,44.917-2.185Z" transform="translate(-153.054 -111.228)" fill="#fff" opacity="0.6"/>
        <path id="Path_116" data-name="Path 116" d="M229.413,113.412l44.917-2.185L251.809,134.8Z" transform="translate(-164.475 -111.228)" fill="#ffc727"/>
        <path id="Path_117" data-name="Path 117" d="M229.413,113.412l44.917-2.185L251.809,134.8Z" transform="translate(-164.475 -111.228)" fill="#fff" opacity="0.4"/>
        <g id="Group_101" data-name="Group 101" transform="translate(28.253 27.316)">
          <g id="Group_89" data-name="Group 89" transform="translate(0 1.851)">
            <rect id="Rectangle_17" data-name="Rectangle 17" width="70.399" height="4.174" transform="translate(51.645 2.883) rotate(133.687)" fill="#fff"/>
          </g>
          <g id="Group_90" data-name="Group 90" transform="translate(7.618 9.127)">
            <rect id="Rectangle_18" data-name="Rectangle 18" width="70.399" height="4.174" transform="matrix(-0.691, 0.723, -0.723, -0.691, 51.644, 2.883)" fill="#fff"/>
          </g>
          <g id="Group_91" data-name="Group 91" transform="translate(15.236 16.404)">
            <rect id="Rectangle_19" data-name="Rectangle 19" width="70.399" height="4.174" transform="matrix(-0.691, 0.723, -0.723, -0.691, 51.645, 2.883)" fill="#fff"/>
          </g>
          <g id="Group_92" data-name="Group 92" transform="translate(22.854 0)">
            <rect id="Rectangle_20" data-name="Rectangle 20" width="103.147" height="4.174" transform="matrix(-0.691, 0.723, -0.723, -0.691, 74.264, 2.883)" fill="#fff"/>
          </g>
          <g id="Group_93" data-name="Group 93" transform="translate(30.472 7.276)">
            <rect id="Rectangle_21" data-name="Rectangle 21" width="103.147" height="4.174" transform="matrix(-0.691, 0.723, -0.723, -0.691, 74.264, 2.883)" fill="#fff"/>
          </g>
          <g id="Group_94" data-name="Group 94" transform="translate(38.09 14.553)">
            <rect id="Rectangle_22" data-name="Rectangle 22" width="103.147" height="4.174" transform="translate(74.264 2.883) rotate(133.687)" fill="#fff"/>
          </g>
          <g id="Group_95" data-name="Group 95" transform="translate(45.707 21.83)">
            <rect id="Rectangle_23" data-name="Rectangle 23" width="103.147" height="4.174" transform="matrix(-0.691, 0.723, -0.723, -0.691, 74.264, 2.883)" fill="#fff"/>
          </g>
          <g id="Group_96" data-name="Group 96" transform="translate(53.325 29.106)">
            <rect id="Rectangle_24" data-name="Rectangle 24" width="103.147" height="4.174" transform="matrix(-0.691, 0.723, -0.723, -0.691, 74.264, 2.883)" fill="#fff"/>
          </g>
          <g id="Group_97" data-name="Group 97" transform="translate(60.943 36.383)">
            <rect id="Rectangle_25" data-name="Rectangle 25" width="103.147" height="4.174" transform="translate(74.264 2.883) rotate(133.687)" fill="#fff"/>
          </g>
          <g id="Group_98" data-name="Group 98" transform="translate(68.561 43.66)">
            <rect id="Rectangle_26" data-name="Rectangle 26" width="103.147" height="4.174" transform="translate(74.264 2.883) rotate(133.687)" fill="#fff"/>
          </g>
          <g id="Group_99" data-name="Group 99" transform="translate(76.179 50.936)">
            <rect id="Rectangle_27" data-name="Rectangle 27" width="103.147" height="4.174" transform="translate(74.264 2.883) rotate(133.687)" fill="#fff"/>
          </g>
          <g id="Group_100" data-name="Group 100" transform="translate(83.797 58.213)">
            <rect id="Rectangle_28" data-name="Rectangle 28" width="103.147" height="4.174" transform="translate(74.264 2.883) rotate(133.687)" fill="#fff"/>
          </g>
        </g>
      </g>
      <g id="Group_104" data-name="Group 104" transform="translate(-9094.51 -2329.324)">
        <g id="Group_103" data-name="Group 103" transform="translate(0 0)">
          <path id="Path_118" data-name="Path 118" d="M126.078,238.185,251.3,223.415l-9.971-83.741L116.108,154.444Z" transform="translate(-116.108 -139.674)" fill="#d3d3d3"/>
          <path id="Path_119" data-name="Path 119" d="M131.683,233.381l114.828-13.543-8.74-73.31L122.943,160.071Z" transform="translate(-117.13 -140.7)" fill="#f4f4f4"/>
          <path id="Path_120" data-name="Path 120" d="M138.372,185.413a12.58,12.58,0,1,0,11.02-13.968A12.581,12.581,0,0,0,138.372,185.413Z" transform="translate(-119.424 -144.413)" fill="#dbdbdb"/>
          <path id="Path_121" data-name="Path 121" d="M175.16,233.6l79.1-9.329-45.871-48.942Z" transform="translate(-124.94 -145.007)" fill="#ebebeb"/>
          <path id="Path_122" data-name="Path 122" d="M138.705,241.359l65.3-7.7L167.24,202.6Z" transform="translate(-119.487 -149.086)" fill="#dbdbdb"/>
        </g>
      </g>
      <g id="Group_4070" data-name="Group 4070" transform="translate(-348 34.474)">
        <g id="Group_235" data-name="Group 235" transform="translate(-8708.186 -2390.38)">
          <path id="Path_109" data-name="Path 109" d="M193.822,312.388,208.2,196.51a9.12,9.12,0,0,1,8.837-8.275l31.533.1A8.593,8.593,0,0,1,254.8,191.1l14.973,15.916,87.7.458c5.359.028,9.476,5.1,8.766,10.8l-13.351,107.1a9.121,9.121,0,0,1-8.826,8.269l-152.837-.3c-17.023.353-18.647-4.675-18.647-4.675C192.083,332.988,193.821,312.4,193.822,312.388Z" transform="translate(-172.575 -188.235)" fill="#ffb115"/>
        </g>
        <g id="Group_4068" data-name="Group 4068" transform="translate(-8623.567 -2329.899)">
          <path id="Path_14954" data-name="Path 14954" d="M35.158,2.761a6.925,6.925,0,0,1,9.794,9.794ZM12.3,45.2a6.925,6.925,0,0,1-9.794-9.794ZM44.952,12.555,12.3,45.2,2.511,35.408,35.158,2.761Z" transform="translate(-0.482 -0.732)" fill="#fff"/>
          <path id="Path_14955" data-name="Path 14955" d="M2.511,12.555A6.925,6.925,0,0,1,12.3,2.761ZM44.952,35.408A6.925,6.925,0,1,1,35.158,45.2ZM12.3,2.761,44.952,35.408,35.158,45.2,2.511,12.555Z" transform="translate(-0.482 -0.732)" fill="#fff"/>
        </g>
      </g>
    </g>
  </g>
</svg>
